<svg width="292" height="64" viewBox="0 0 292 64" fill="none" xmlns="http://www.w3.org/2000/svg">
<path d="M23.7535 49.832C8.3295 49.832 0.00950003 39.848 0.00950003 25C0.00950003 10.152 8.4575 0.167999 23.4975 0.167999C34.9535 0.167999 41.9295 5.992 44.1055 15.848L35.7855 17.96C34.3135 11.432 29.5135 8.232 23.3695 8.232C14.3455 8.232 8.8415 15.144 8.8415 25C8.8415 34.92 14.3455 41.768 23.6255 41.768C30.2815 41.768 35.4015 38.184 37.0015 32.36L45.1295 34.984C42.2495 44.776 34.8255 49.832 23.7535 49.832ZM66.7315 49.704C55.6595 49.704 48.3635 42.344 48.3635 30.504C48.3635 18.728 55.6595 11.304 66.7315 11.304C77.7395 11.304 85.0355 18.728 85.0355 30.504C85.0355 42.344 77.7395 49.704 66.7315 49.704ZM56.6835 30.504C56.6835 37.928 60.5875 42.536 66.7315 42.536C72.8115 42.536 76.7155 37.864 76.7155 30.504C76.7155 23.08 72.8115 18.472 66.7315 18.472C60.5875 18.472 56.6835 23.08 56.6835 30.504ZM107.732 49.704C96.6595 49.704 89.3635 42.344 89.3635 30.504C89.3635 18.728 96.6595 11.304 107.732 11.304C118.74 11.304 126.036 18.728 126.036 30.504C126.036 42.344 118.74 49.704 107.732 49.704ZM97.6835 30.504C97.6835 37.928 101.588 42.536 107.732 42.536C113.812 42.536 117.716 37.864 117.716 30.504C117.716 23.08 113.812 18.472 107.732 18.472C101.588 18.472 97.6835 23.08 97.6835 30.504ZM132.54 63.08V11.88H140.54V17.64H140.924C143.1 13.16 147.836 11.112 152.636 11.112C162.108 11.112 169.404 18.472 169.404 30.44C169.404 42.408 162.108 49.768 152.636 49.768C147.836 49.768 143.1 47.72 140.924 43.24H140.54V63.08H132.54ZM140.54 30.44C140.54 38.056 144.508 42.728 150.716 42.728C156.86 42.728 160.956 38.056 160.956 30.44C160.956 22.824 156.86 18.152 150.716 18.152C144.508 18.152 140.54 22.824 140.54 30.44ZM192.437 49.256C182.709 49.256 179.317 45.288 179.317 32.168V18.92H172.405V11.88H179.317V2.92H187.317V11.88H198.005V18.92H187.317V30.056C187.317 40.168 188.213 41.896 193.781 41.896C194.805 41.896 197.749 41.896 199.029 41.832V49C196.853 49.256 194.229 49.256 192.437 49.256ZM220.602 49.832C208.826 49.832 202.426 42.024 202.426 30.504C202.426 18.92 208.698 11.112 220.026 11.112C230.138 11.112 236.602 17.384 236.602 28.904V33H210.298C210.81 38.632 213.882 42.792 220.41 42.792C224.89 42.792 228.154 40.872 229.306 37.096L235.962 39.336C234.106 45.864 229.05 49.832 220.602 49.832ZM210.362 27.304H229.05C229.05 21.096 225.274 17.704 219.962 17.704C214.202 17.704 211.002 21.672 210.362 27.304ZM243.415 49V11.88H251.415V17.832H251.799C253.719 12.648 257.175 11.176 261.911 11.176C262.807 11.176 263.767 11.24 264.663 11.432V19.624C263.191 19.432 261.783 19.304 260.311 19.304C255.958 19.304 251.415 20.264 251.415 30.76V49H243.415ZM270.415 49V11.88H278.415V17.832H278.799C280.719 12.648 284.175 11.176 288.911 11.176C289.807 11.176 290.767 11.24 291.663 11.432V19.624C290.191 19.432 288.783 19.304 287.311 19.304C282.958 19.304 278.415 20.264 278.415 30.76V49H270.415Z" fill="black"/>
</svg>
