<svg width="72" height="90" viewBox="0 0 72 90" fill="none" xmlns="http://www.w3.org/2000/svg">
<g clip-path="url(#clip0_2205_455)">
<path d="M42.8232 68.1642C37.3782 60.378 33.6993 58.0278 26.047 56.8524V64.0509C31.3446 64.7853 33.8463 67.5765 37.2312 72.4245C46.3548 85.4991 51.5055 90.7875 70.0473 89.9061V83.0016C55.773 83.883 50.9169 79.476 42.8232 68.1642ZM47.385 64.6383C55.1844 75.3624 59.3049 79.035 70.0473 78.1536V71.2491C62.1009 72.1305 58.2747 68.1642 52.8297 60.378C46.0605 50.9763 38.5554 45.8346 25.8999 45.0999V52.1514C35.0238 52.4454 40.9101 55.5303 47.385 64.6383ZM0 88.8777H7.21077V28.7935C5.0034 29.528 2.20738 30.4095 0 31.4379V88.8777ZM20.0135 25.5616C17.8062 25.8554 15.0101 26.2961 12.8028 26.8837V88.8777H20.0135V25.5616ZM58.2747 32.466C58.2747 20.5668 48.8565 12.6339 30.3147 12.6339C20.6022 12.6339 8.97666 14.8375 0 18.5101V25.8554C8.24088 22.1827 20.1607 19.5384 30.3147 19.5384C43.7061 19.5384 51.0639 24.0925 51.0639 32.613C51.0639 37.6077 48.5622 42.015 44.0004 44.8062C45.9135 45.8346 47.9736 47.4504 49.5924 48.9195C55.1844 45.3939 58.2747 39.2238 58.2747 32.466ZM31.1976 0C20.8965 0 10.3011 2.20358 0.147159 5.5824V12.9277C11.3312 8.81433 21.9266 6.90456 31.1976 6.90456C52.2411 6.90456 64.6026 16.4534 64.6026 31.5846C64.6026 40.3989 60.7764 47.8911 53.5656 52.8861C55.0371 54.5019 56.6559 56.4117 57.9804 58.0278C66.957 51.8577 71.8134 42.015 71.8134 31.5846C71.6661 12.6339 56.2146 0 31.1976 0Z" fill="black"/>
</g>
<defs>
<clipPath id="clip0_2205_455">
<rect width="72" height="90" fill="white"/>
</clipPath>
</defs>
</svg>
